# xmcd
#
# Track frame offsets: 
#        150
#        13784
#        27992
#        42036
#        56975
#        71980
#        86001
#        101097
#        115307
#        128936
#        142564
#        156707
#        169558
#        182364
#
# Disc length: 2596 seconds
#
# Revision: 0
# Processed by: cddbd v1.5.2PL0 Copyright (c) Steve Scherf et al.
# Submitted via: ExactAudioCopy v1.0b1
#
DISCID=c00a220e
DTITLE=Blind Willie Johnson  - Vol. 1 (1927 to 10th December 1929)
DYEAR=2011
DGENRE=Blues
TTITLE0=I Know His Blood Can Make Me Whole - Blind Willie Johnson
TTITLE1=Jesus Make Up My Dying Bed - Blind Willie Johnson
TTITLE2=It's Nobody's Fault But Mine - Blind Willie Johnson
TTITLE3=Mother's Children Have A Hard Time - Blind Willie Johnson
TTITLE4=Dark Was The Night - Cold Was The Ground - Blind Willie Johnso
TTITLE4=n
TTITLE5=If I Had My Way I'd Tear The Building Down - Blind Willie John
TTITLE5=son
TTITLE6=Gonna Run To The City Of Refuge - Blind Willie Johnson with Wi
TTITLE6=llie B. Harris
TTITLE7=Jesus Is Coming Soon - Blind Willie Johnson with Willie B. Har
TTITLE7=ris
TTITLE8=Lord I Just Can't Keep From Crying - Blind Willie Johnson with
TTITLE8=Willie B. Harris
TTITLE9=Keep Your Lamp Trimmed And Burning - Blind Willie Johnson with
TTITLE9=Willie B. Harris
TTITLE10=Let Your Light Shine On Me - Blind Willie Johnson
TTITLE11=God Don't Never Change - Blind Willie Johnson
TTITLE12=Bye And Bye I'm Goin' To See The King - Blind Willie Johnson
TTITLE13=Sweeter As The Years Roll By - Blind Willie Johnson
EXTD=
EXTT0=
EXTT1=
EXTT2=
EXTT3=
EXTT4=
EXTT5=
EXTT6=
EXTT7=
EXTT8=
EXTT9=
EXTT10=
EXTT11=
EXTT12=
EXTT13=
PLAYORDER=
